<svg xmlns="http://www.w3.org/2000/svg" xmlns:xlink="http://www.w3.org/1999/xlink" width="200" height="100" viewBox="0 0 200 100">
  <defs>
    <clipPath id="clip-custom_1">
      <rect width="200" height="100"/>
    </clipPath>
  </defs>
  <g id="custom_1" data-name="custom – 1" clip-path="url(#clip-custom_1)">
    <g id="Group_2" data-name="Group 2" transform="translate(-9 0.844)">
      <path id="Path_2" data-name="Path 2" d="M81.494,261.487s-3.764,2.189,2.678,2.929c7.8.89,11.793.763,20.394-.865a35.484,35.484,0,0,0,5.419,2.646c-19.28,8.263-43.635-.479-28.492-4.71M79.138,250.7s-4.221,3.125,2.226,3.792c8.337.86,14.921.93,26.314-1.263a11.682,11.682,0,0,0,4.054,2.471c-23.311,6.817-49.276.538-32.593-5" transform="translate(-45.945 -186.653)" fill="#5382a1"/>
      <path id="Path_3" data-name="Path 3" d="M156.568,107.154c4.751,5.47-1.248,10.392-1.248,10.392s12.062-6.227,6.523-14.025c-5.174-7.272-9.142-10.885,12.338-23.343,0,0-33.717,8.421-17.613,26.976" transform="translate(-103.513 -61.395)" fill="#e76f00"/>
      <path id="Path_4" data-name="Path 4" d="M80.955,235.915s2.785,2.3-3.067,4.07c-11.129,3.371-46.32,4.389-56.1.135-3.514-1.529,3.076-3.651,5.149-4.1a13.368,13.368,0,0,1,3.4-.381c-3.908-2.753-25.26,5.406-10.846,7.742,39.31,6.375,71.66-2.871,61.463-7.47m-41.2-29.931s-17.9,4.252-6.339,5.8c4.882.654,14.613.506,23.677-.254,7.408-.625,14.847-1.953,14.847-1.953a31.441,31.441,0,0,0-4.5,2.409c-18.177,4.781-53.293,2.557-43.184-2.333a33.87,33.87,0,0,1,15.5-3.664M71.87,223.933c18.478-9.6,9.935-18.83,3.971-17.586a13.826,13.826,0,0,0-2.113.568,3.369,3.369,0,0,1,1.579-1.218c11.8-4.148,20.87,12.233-3.808,18.721a1.6,1.6,0,0,0,.372-.484" transform="translate(-2.4 -153.106)" fill="#5382a1"/>
      <path id="Path_5" data-name="Path 5" d="M125.5,4.4s10.233,10.237-9.706,25.979C99.8,43,112.147,50.2,115.787,58.431,106.454,50.01,99.6,42.6,104.2,35.7c6.744-10.128,25.429-15.038,21.3-31.3" transform="translate(-67.169 -5.732)" fill="#e76f00"/>
      <path id="Path_6" data-name="Path 6" d="M77.809,349.281c17.737,1.135,44.974-.63,45.618-9.022,0,0-1.24,3.181-14.658,5.708-15.138,2.849-33.81,2.516-44.884.69,0,0,2.267,1.876,13.924,2.624" transform="translate(-38.634 -252.435)" fill="#5382a1"/>
    </g>
    <g id="Group_1" data-name="Group 1" transform="translate(76 -17)">
      <path id="Path_1" data-name="Path 1" d="M283.686,430.151h-.618v-.346h1.666v.346h-.615v1.727h-.432Zm3.322.09H287l-.613,1.638H286.1l-.609-1.638h-.007v1.638h-.408v-2.073h.6l.565,1.468.563-1.468h.6v2.073h-.4Z" transform="translate(-188.303 -355.048)" fill="#e76f00"/>
      <path id="Path_7" data-name="Path 7" d="M36.545,428.51A9.209,9.209,0,0,1,30.8,431.1c-2.589,0-3.988-1.552-3.988-4.043,0-2.693,1.5-4.663,7.512-4.663h2.225v6.114m5.281,5.958V416.025c0-4.712-2.687-7.82-9.166-7.82a24.146,24.146,0,0,0-9.789,2.125l.777,3.265a22.751,22.751,0,0,1,7.559-1.5c3.732,0,5.338,1.5,5.338,4.609v2.331H34.682c-9.068,0-13.159,3.52-13.159,8.8,0,4.56,2.7,7.152,7.771,7.152a11.721,11.721,0,0,0,7.975-3.318l.413,2.8h4.143Zm17.624,0H52.864l-7.927-25.8h5.752l4.918,15.849,1.093,4.767a99.1,99.1,0,0,0,5.129-20.616h5.6a104.768,104.768,0,0,1-7.975,25.8m25.267-5.958A9.233,9.233,0,0,1,78.96,431.1c-2.585,0-3.987-1.552-3.987-4.043,0-2.693,1.5-4.663,7.514-4.663h2.229v6.114M90,434.468V416.025c0-4.712-2.694-7.82-9.166-7.82a24.144,24.144,0,0,0-9.791,2.125l.776,3.265a22.788,22.788,0,0,1,7.562-1.5c3.73,0,5.338,1.5,5.338,4.609v2.331H82.85c-9.071,0-13.16,3.52-13.16,8.8,0,4.56,2.694,7.152,7.768,7.152a11.736,11.736,0,0,0,7.98-3.318l.415,2.8H90Zm-74.264,4.381a13.875,13.875,0,0,1-6.6,4.921L6.527,440.7a10.944,10.944,0,0,0,4.571-4.282c.7-1.391.987-3.184.987-7.471V399.5H17.7v29.048c0,5.731-.458,8.046-1.963,10.3" transform="translate(4.27 -333.942)" fill="#e76f00"/>
    </g>
    <text id="Advanced" transform="translate(131 36)" fill="#e76f00" font-size="24" font-family="Gadugi-Bold, Gadugi" font-weight="700" letter-spacing="0.04em"><tspan x="-59.13" y="0">Advanced</tspan></text>
  </g>
</svg>
