<svg xmlns="http://www.w3.org/2000/svg" xmlns:xlink="http://www.w3.org/1999/xlink" width="200" height="100" viewBox="0 0 200 100">
  <defs>
    <clipPath id="clip-custom_1">
      <rect width="200" height="100"/>
    </clipPath>
  </defs>
  <g id="custom_1" data-name="custom – 1" clip-path="url(#clip-custom_1)">
    <g id="mysql_1_" data-name="mysql (1)" transform="translate(22.458 -22.58)">
      <path id="Path_31" data-name="Path 31" d="M-18.458,6.58H172.693V139.07H-18.458Z" fill="none"/>
      <path id="Path_32" data-name="Path 32" d="M40.054,113.583H34.879q-.274-13.1-1.511-24.642h-.046l-7.879,24.642H21.5L13.671,88.941h-.045q-.872,11.082-1.1,24.642H7.81q.456-16.49,2.289-30.919h6.414l7.465,22.719h.046l7.511-22.719h6.137q2.016,16.9,2.382,30.919M62.5,90.771q-3.16,17.151-8.337,24.928-4.032,5.988-8.84,5.99a8.689,8.689,0,0,1-3.16-.77v-2.757a15.219,15.219,0,0,0,2.152.138,5.2,5.2,0,0,0,3.62-1.238,4.516,4.516,0,0,0,1.647-3.388,22.543,22.543,0,0,0-1.282-5.268L42.618,90.77H47.7l4.076,13.19q1.374,4.493,1.145,6.277A86.158,86.158,0,0,0,57.6,90.769h4.9v0Z" fill="#5d87a1"/>
      <path id="Path_33" data-name="Path 33" d="M131.382,113.583h-14.7V82.664h4.945v27.113h9.755Zm-18.548.747-5.684-2.805a10.563,10.563,0,0,0,1.42-1.381q3.624-4.257,3.621-12.594,0-15.344-12.045-15.346-5.907,0-9.207,3.895-3.621,4.26-3.619,12.551,0,8.152,3.205,11.951,2.933,3.437,8.843,3.438a14.247,14.247,0,0,0,4.048-.543l7.4,4.308ZM94.421,107.4q-1.878-3.021-1.878-9.707,0-11.677,7.1-11.682a5.957,5.957,0,0,1,5.449,2.792q1.875,3.025,1.879,9.619,0,11.773-7.1,11.774a5.945,5.945,0,0,1-5.451-2.8m-9.256-2.383a8.2,8.2,0,0,1-2.884,6.458,11.359,11.359,0,0,1-7.737,2.519A15.494,15.494,0,0,1,65.75,111.1l1.329-2.655a15.044,15.044,0,0,0,6.638,1.831,6.972,6.972,0,0,0,4.375-1.232,4.2,4.2,0,0,0,1.684-3.433c0-1.837-1.281-3.407-3.631-4.722-2.167-1.19-6.5-3.678-6.5-3.678a7.4,7.4,0,0,1-3.525-6.578,7.681,7.681,0,0,1,2.632-6.068,9.921,9.921,0,0,1,6.8-2.315,14.105,14.105,0,0,1,7.829,2.291L82.191,87.2a15.138,15.138,0,0,0-5.951-1.281,5.3,5.3,0,0,0-3.66,1.146A3.831,3.831,0,0,0,71.193,90c0,1.828,1.308,3.418,3.722,4.759,2.2,1.192,6.638,3.723,6.638,3.723,2.409,1.709,3.612,3.53,3.612,6.534" fill="#f8981d"/>
      <path id="Path_34" data-name="Path 34" d="M137.59,72.308a17.264,17.264,0,0,0-7.248,1.047c-.561.224-1.453.224-1.531.933.3.3.338.784.6,1.2a8.68,8.68,0,0,0,1.942,2.276c.783.6,1.569,1.194,2.393,1.717,1.453.9,3.1,1.422,4.516,2.318.825.521,1.645,1.195,2.471,1.756.406.3.666.784,1.193.971V84.41c-.264-.336-.339-.822-.6-1.2l-1.122-1.082a17.78,17.78,0,0,0-3.884-3.771c-1.2-.824-3.812-1.944-4.3-3.322l-.076-.076a14.883,14.883,0,0,0,2.578-.6c1.271-.335,2.43-.259,3.734-.594.6-.15,1.2-.338,1.8-.523V72.9c-.676-.673-1.158-1.567-1.869-2.2a49.74,49.74,0,0,0-6.164-4.6c-1.16-.749-2.652-1.231-3.887-1.868-.445-.225-1.195-.336-1.457-.71a15.22,15.22,0,0,1-1.533-2.877c-1.08-2.053-2.129-4.331-3.061-6.5a40.4,40.4,0,0,0-1.906-4.257c-3.85-6.35-8.031-10.2-14.457-13.971a17.916,17.916,0,0,0-4.779-1.533l-2.8-.148a14.852,14.852,0,0,1-1.719-1.309c-2.132-1.344-7.621-4.257-9.189-.411-1.01,2.431,1.494,4.821,2.354,6.054a17.171,17.171,0,0,1,1.9,2.8c.263.635.337,1.309.6,1.98a44.747,44.747,0,0,0,1.943,5.007,17.826,17.826,0,0,0,1.381,2.312c.3.414.822.6.936,1.272a10.72,10.72,0,0,0-.861,2.8c-1.344,4.221-.819,9.45,1.086,12.552.6.934,2.018,2.99,3.92,2.2,1.684-.672,1.311-2.8,1.795-4.668.111-.451.038-.747.262-1.043v.073c.521,1.045,1.047,2.052,1.53,3.1a21.3,21.3,0,0,0,4.858,5c.895.676,1.6,1.832,2.725,2.245V74.1h-.074a4.185,4.185,0,0,0-.857-.745,18.14,18.14,0,0,1-1.943-2.241,48.118,48.118,0,0,1-4.182-6.8c-.6-1.16-1.121-2.428-1.606-3.586-.226-.447-.226-1.121-.6-1.346a13.973,13.973,0,0,0-1.791,2.538,21.131,21.131,0,0,0-1.049,5.646l-.147.072c-1.19-.3-1.6-1.53-2.056-2.575a16.18,16.18,0,0,1-.336-9.976c.26-.783,1.385-3.249.936-3.995-.225-.715-.973-1.122-1.383-1.685a15.186,15.186,0,0,1-1.346-2.39c-.9-2.091-1.347-4.408-2.312-6.5a20.125,20.125,0,0,0-1.868-2.879,18.508,18.508,0,0,1-2.058-2.913c-.186-.411-.447-1.083-.148-1.53a.6.6,0,0,1,.523-.487c.484-.409,1.867.111,2.352.336a18.927,18.927,0,0,1,3.7,1.867c.523.375,1.084,1.085,1.755,1.272h.786c1.193.26,2.538.072,3.661.41A24.049,24.049,0,0,1,107,39.17a33.147,33.147,0,0,1,11.652,12.778c.447.858.637,1.644,1.045,2.539.787,1.832,1.76,3.7,2.541,5.493a24.614,24.614,0,0,0,2.654,5.005c.559.784,2.805,1.195,3.812,1.606a26.352,26.352,0,0,1,2.577,1.044c1.271.783,2.537,1.682,3.732,2.543.6.448,2.465,1.382,2.576,2.13M99.484,39.844a5.82,5.82,0,0,0-1.529.188v.075h.072a12.189,12.189,0,0,0,1.2,1.532c.3.6.562,1.193.857,1.791l.072-.074a2.1,2.1,0,0,0,.789-1.868,8.54,8.54,0,0,1-.451-.784c-.22-.374-.705-.56-1.007-.86" fill="#5d87a1"/>
      <path id="Path_35" data-name="Path 35" d="M141.148,113.578h.774V109.79h-1.161l-.947,2.585-1.029-2.585h-1.118v3.788h.731V110.7h.041l1.078,2.882h.557l1.074-2.882v2.882Zm-6.235,0h.819v-3.146H136.8v-.643H133.8v.643h1.115l0,3.146Z" fill="#f8981d"/>
    </g>
  </g>
</svg>
